HIERARCHY
ROOT Hips
{
	OFFSET -0.001795 -0.223333 0.028219
	CHANNELS 6 Xposition Yposition Zposition Zrotation Yrotation Xrotation 
	JOINT LeftUpLeg
	{
		OFFSET 0.069520 -0.091406 -0.006815
		CHANNELS 3 Zrotation Yrotation Xrotation
		JOINT LeftLeg
		{
			OFFSET 0.034277 -0.375199 -0.004496
			CHANNELS 3 Zrotation Yrotation Xrotation
			JOINT LeftFoot
			{
				OFFSET -0.013596 -0.397961 -0.043693
				CHANNELS 3 Zrotation Yrotation Xrotation
				JOINT LeftToe
				{
					OFFSET 0.026358 -0.055791 0.119288
					CHANNELS 3 Zrotation Yrotation Xrotation
					End Site
					{
						OFFSET 0.000000 0.000000 0.000000
					}
				}
			}
		}
	}
	JOINT RightUpLeg
	{
		OFFSET -0.067670 -0.090522 -0.004320
		CHANNELS 3 Zrotation Yrotation Xrotation
		JOINT RightLeg
		{
			OFFSET -0.038290 -0.382569 -0.008850
			CHANNELS 3 Zrotation Yrotation Xrotation
			JOINT RightFoot
			{
				OFFSET 0.015774 -0.398415 -0.042312
				CHANNELS 3 Zrotation Yrotation Xrotation
				JOINT RightToe
				{
					OFFSET -0.025372 -0.048144 0.123348
					CHANNELS 3 Zrotation Yrotation Xrotation
					End Site
					{
						OFFSET 0.000000 0.000000 0.000000
					}
				}
			}
		}
	}
	JOINT Spine
	{
		OFFSET -0.002533 0.108963 -0.026696
		CHANNELS 3 Zrotation Yrotation Xrotation
		JOINT Spine1
		{
			OFFSET 0.005487 0.135180 0.001092
			CHANNELS 3 Zrotation Yrotation Xrotation
			JOINT Spine2
			{
				OFFSET 0.001457 0.052922 0.025425
				CHANNELS 3 Zrotation Yrotation Xrotation
				JOINT Neck
				{
					OFFSET -0.002778 0.213870 -0.042857
					CHANNELS 3 Zrotation Yrotation Xrotation
					JOINT Head
					{
						OFFSET 0.005152 0.064970 0.051349
						CHANNELS 3 Zrotation Yrotation Xrotation
						End Site
						{
							OFFSET 0.000000 0.000000 0.000000
						}
					}
				}
				JOINT LeftShoulder
				{
					OFFSET 0.078845 0.121749 -0.034090
					CHANNELS 3 Zrotation Yrotation Xrotation
					JOINT LeftArm
					{
						OFFSET 0.090977 0.030469 -0.008868
						CHANNELS 3 Zrotation Yrotation Xrotation
						JOINT LeftForeArm
						{
							OFFSET 0.259612 -0.012772 -0.027456
							CHANNELS 3 Zrotation Yrotation Xrotation
							JOINT LeftHand
							{
								OFFSET 0.249234 0.008986 -0.001171
								CHANNELS 3 Zrotation Yrotation Xrotation
								End Site
								{
									OFFSET 0.000000 0.000000 0.000000
								}
							}
						}
					}
				}
				JOINT RightShoulder
				{
					OFFSET -0.081759 0.118833 -0.038615
					CHANNELS 3 Zrotation Yrotation Xrotation
					JOINT RightArm
					{
						OFFSET -0.096012 0.032551 -0.009143
						CHANNELS 3 Zrotation Yrotation Xrotation
						JOINT RightForeArm
						{
							OFFSET -0.253742 -0.013329 -0.021401
							CHANNELS 3 Zrotation Yrotation Xrotation
							JOINT RightHand
							{
								OFFSET -0.255298 0.007772 -0.005559
								CHANNELS 3 Zrotation Yrotation Xrotation
								End Site
								{
									OFFSET 0.000000 0.000000 0.000000
								}
							}
						}
					}
				}
			}
		}
	}
}
MOTION
Frames: 17
Frame Time: 0.050000
0.016969 0.916597 0.076768 -3.295565 -8.215068 4.739788 12.814412 0.906420 -21.805801 -9.772082 4.326915 33.473863 7.289278 15.393020 6.188275 0.000000 0.000000 0.000000 -14.602845 0.588811 -23.271121 8.276492 -1.004414 19.583230 -4.534160 -15.354515 17.040937 0.000000 0.000000 0.000000 6.741776 -2.807246 35.147062 -7.964439 1.979778 -33.641896 0.269734 2.991653 27.989518 16.705796 -5.656822 -39.347245 0.000000 0.000000 0.000000 -32.482340 -18.777366 11.919662 -28.972076 -20.879034 -1.025590 -3.265998 -41.113466 2.985998 0.000000 0.000000 0.000000 39.229785 6.609046 1.473524 33.279321 20.541493 0.026187 -0.925612 38.221563 1.291211 0.000000 0.000000 0.000000 
0.014354 0.921377 0.079999 -3.385094 -7.844105 4.813309 12.632554 0.773738 -20.702683 -9.315624 3.843641 31.554285 7.364302 15.570198 6.908779 0.000000 0.000000 0.000000 -14.456338 0.570610 -22.020893 7.951873 -0.940114 18.106100 -4.979846 -16.121258 17.749919 0.000000 0.000000 0.000000 6.509467 -2.701688 33.673042 -8.269860 1.996378 -34.659545 0.403911 3.218937 28.517593 16.982332 -5.965193 -38.608055 0.000000 0.000000 0.000000 -31.914639 -17.956689 11.119629 -30.033030 -20.118563 -1.163848 -5.334645 -39.056588 3.539993 0.000000 0.000000 0.000000 39.149324 6.250539 1.423253 33.702774 20.626066 -0.042303 -0.133216 37.061927 1.531796 0.000000 0.000000 0.000000 
0.010096 0.926668 0.083696 -3.277701 -7.707081 4.723692 12.415811 0.650661 -19.357782 -8.973729 3.432196 29.259302 7.634448 16.095045 8.777218 0.000000 0.000000 0.000000 -13.918334 0.613115 -20.795389 7.275888 -0.783388 17.093909 -5.168145 -16.415853 17.880897 0.000000 0.000000 0.000000 6.199771 -2.522455 31.904501 -8.713198 2.071238 -34.630250 0.734980 3.006734 28.315557 16.930080 -6.294332 -37.140203 0.000000 0.000000 0.000000 -31.680308 -17.379408 10.767234 -30.543447 -18.912777 -1.420921 -6.382293 -38.065653 3.805153 0.000000 0.000000 0.000000 38.792049 5.589686 0.786388 34.613109 19.640304 -0.193312 0.845417 37.188076 1.849773 0.000000 0.000000 0.000000 
0.004524 0.931096 0.087832 -3.256562 -7.736840 4.746735 12.262727 0.566988 -18.161381 -8.086622 2.884948 27.235809 7.436273 15.805616 10.622552 0.000000 0.000000 0.000000 -13.442721 0.656601 -19.517286 6.889055 -0.694716 15.808173 -5.592013 -17.131667 18.296672 0.000000 0.000000 0.000000 6.207939 -2.412658 29.951916 -9.027548 2.114561 -35.130165 0.661737 2.728755 28.711818 16.817052 -6.482662 -36.430532 0.000000 0.000000 0.000000 -31.225873 -16.360965 10.194620 -31.315129 -18.351984 -1.618729 -7.382808 -36.605359 4.002058 0.000000 0.000000 0.000000 38.194626 4.940761 0.115908 36.148393 18.245199 -0.476525 2.180462 37.374049 2.300886 0.000000 0.000000 0.000000 
-0.002301 0.934412 0.092148 -3.219401 -7.802141 4.462241 12.290104 0.516384 -16.713254 -7.777348 2.593616 25.202693 8.018283 16.763530 12.763960 0.000000 0.000000 0.000000 -12.899596 0.692544 -18.258356 6.498845 -0.608448 15.037560 -5.746458 -17.416923 18.694800 0.000000 0.000000 0.000000 6.268636 -2.339517 28.566410 -9.392086 2.187042 -34.931510 0.719755 2.254519 28.648878 16.680477 -6.626424 -35.818879 0.000000 0.000000 0.000000 -30.997407 -15.828367 10.032305 -31.698394 -17.587843 -1.842104 -7.565951 -36.497620 4.075072 0.000000 0.000000 0.000000 37.601110 4.119901 -0.798096 37.298855 16.579146 -0.802484 3.048090 37.969630 2.601182 0.000000 0.000000 0.000000 
-0.010499 0.936552 0.096538 -3.156124 -8.100950 4.406594 12.386327 0.504942 -15.647413 -7.146702 2.254440 23.465210 8.240633 17.080138 15.241049 0.000000 0.000000 0.000000 -12.536925 0.723468 -17.021649 6.221555 -0.543434 14.064214 -6.078274 -17.989649 18.996275 0.000000 0.000000 0.000000 6.414575 -2.253434 26.890600 -9.105269 2.161995 -34.636184 0.149621 2.060042 28.530782 16.685510 -6.678422 -35.723638 0.000000 0.000000 0.000000 -30.892966 -14.993049 9.630504 -32.159083 -17.243201 -1.961672 -7.102764 -35.890017 3.881515 0.000000 0.000000 0.000000 37.565467 3.288329 -1.708821 38.347662 14.749089 -1.212180 4.433499 38.155046 3.054785 0.000000 0.000000 0.000000 
-0.020071 0.938005 0.100870 -3.186343 -8.537102 4.319201 12.636892 0.515596 -14.392481 -6.732308 2.028078 21.851759 8.820653 17.869558 16.950858 0.000000 0.000000 0.000000 -12.060468 0.768863 -16.249272 6.190281 -0.521950 13.688688 -6.348898 -18.483940 19.350883 0.000000 0.000000 0.000000 6.549834 -2.159958 25.301132 -8.930978 2.162185 -33.963318 -0.050175 1.924906 28.159308 16.234845 -6.647483 -34.940366 0.000000 0.000000 0.000000 -30.982313 -14.444722 9.448055 -32.382608 -16.655488 -2.119012 -6.527924 -35.939039 3.729584 0.000000 0.000000 0.000000 37.435726 2.339953 -2.720139 38.850457 12.928146 -1.613272 5.303247 38.109365 3.291765 0.000000 0.000000 0.000000 
-0.031119 0.939397 0.104752 -3.150718 -9.084075 4.184241 12.756218 0.511633 -13.123490 -6.270701 1.809459 20.296905 9.823452 19.170171 18.890203 0.000000 0.000000 0.000000 -11.374586 0.818003 -15.253283 5.962918 -0.459742 13.209103 -6.905052 -19.420368 19.925873 0.000000 0.000000 0.000000 6.909384 -2.116104 23.867582 -8.679979 2.140728 -33.528426 -0.580374 1.890892 28.048695 15.990746 -6.596560 -34.764813 0.000000 0.000000 0.000000 -30.905694 -13.725414 9.125273 -32.855539 -16.437371 -2.216312 -5.712784 -35.580803 3.465411 0.000000 0.000000 0.000000 37.666719 1.885182 -3.369587 39.094645 11.353565 -1.972068 5.739268 37.603664 3.343544 0.000000 0.000000 0.000000 
-0.043306 0.940157 0.107883 -3.109769 -9.513961 4.043999 13.040831 0.530448 -12.096814 -5.714669 1.583837 19.114163 10.352508 19.757016 20.801233 0.000000 0.000000 0.000000 -10.869554 0.847172 -14.618423 5.834019 -0.421483 12.989794 -7.594787 -20.529240 21.015157 0.000000 0.000000 0.000000 7.199392 -2.092449 22.951911 -8.405125 2.108899 -33.201507 -0.987160 2.074369 27.880316 15.676095 -6.413139 -34.841634 0.000000 0.000000 0.000000 -30.905246 -13.465595 8.989934 -33.054122 -16.216356 -2.273077 -5.184699 -35.207945 3.270365 0.000000 0.000000 0.000000 37.800426 1.284440 -3.941110 39.355593 10.312117 -2.237568 5.664143 36.910870 3.237569 0.000000 0.000000 0.000000 
-0.056304 0.940950 0.110066 -3.122504 -10.130812 3.984617 13.359445 0.553719 -10.941431 -5.219073 1.377643 17.580154 11.280408 20.781373 22.840091 0.000000 0.000000 0.000000 -10.029182 0.888230 -13.777671 5.570897 -0.359732 12.357443 -8.081663 -21.299022 21.368623 0.000000 0.000000 0.000000 7.804962 -2.108013 21.829940 -8.155492 2.079015 -32.478589 -1.510161 2.277821 27.320090 15.735114 -6.594441 -34.090475 0.000000 0.000000 0.000000 -31.148317 -13.178010 8.895432 -33.391808 -15.440602 -2.456989 -4.547065 -35.023605 3.067810 0.000000 0.000000 0.000000 38.227209 1.298641 -4.162616 38.766953 9.135839 -2.446809 5.852186 36.086298 3.166870 0.000000 0.000000 0.000000 
-0.069789 0.941458 0.111484 -2.932167 -10.636449 3.849853 13.650350 0.583272 -10.203592 -4.792046 1.233421 16.781434 11.734676 21.155413 24.897731 0.000000 0.000000 0.000000 -9.625239 0.899817 -13.197143 5.633528 -0.362374 11.913542 -8.139213 -21.437986 21.502235 0.000000 0.000000 0.000000 8.155561 -2.092587 21.070882 -8.138301 2.084738 -32.167518 -1.815069 2.348302 27.379330 15.581991 -6.563356 -34.112364 0.000000 0.000000 0.000000 -31.633551 -13.055436 8.988829 -33.094458 -15.345493 -2.513824 -3.727040 -34.356033 2.745479 0.000000 0.000000 0.000000 38.386625 1.678196 -4.045925 38.572271 8.708758 -2.513561 5.393212 34.913432 2.888029 0.000000 0.000000 0.000000 
-0.083386 0.942378 0.112301 -2.985313 -11.705445 3.812803 14.048454 0.649038 -9.335502 -4.406594 1.109604 15.522035 13.255336 22.563334 28.404338 0.000000 0.000000 0.000000 -8.702527 0.949682 -12.728931 5.475865 -0.312069 11.332596 -7.827890 -21.118642 21.068263 0.000000 0.000000 0.000000 8.760005 -2.090009 20.188311 -7.792431 2.023577 -31.594123 -2.321595 3.059127 26.872329 15.633805 -6.691392 -33.456688 0.000000 0.000000 0.000000 -31.793762 -12.706423 8.744175 -33.739066 -14.325814 -2.748950 -2.938951 -34.297512 2.518794 0.000000 0.000000 0.000000 38.527411 1.444695 -4.279777 38.527251 8.153354 -2.618970 6.001074 33.931766 2.957552 0.000000 0.000000 0.000000 
-0.096612 0.943003 0.112891 -2.931135 -12.088396 3.679593 14.303547 0.668408 -8.665884 -4.055319 1.009018 15.147788 13.915591 23.210394 29.224678 0.000000 0.000000 0.000000 -8.094215 0.942462 -12.008457 5.439191 -0.308888 10.657278 -7.185406 -20.176227 19.911096 0.000000 0.000000 0.000000 9.125682 -2.085239 19.556455 -7.868215 2.041279 -31.215930 -2.486314 3.232340 26.732114 15.500797 -6.788011 -32.750275 0.000000 0.000000 0.000000 -31.953502 -12.593026 8.700168 -33.785414 -13.688083 -2.900039 -3.208344 -33.520399 2.518968 0.000000 0.000000 0.000000 38.566442 1.489209 -4.301682 38.509272 7.609678 -2.750064 6.636300 33.652195 3.100081 0.000000 0.000000 0.000000 
-0.108643 0.944269 0.113468 -2.764063 -12.728637 3.565124 14.486954 0.672682 -7.642273 -3.910412 0.951118 14.225458 14.453326 23.664857 30.103845 0.000000 0.000000 0.000000 -7.287170 0.953972 -11.550492 5.162968 -0.260695 10.062246 -7.248387 -20.288330 19.318330 0.000000 0.000000 0.000000 9.548898 -2.078217 18.966778 -7.814410 2.034810 -30.682888 -2.854342 3.285012 26.341128 15.089075 -6.849732 -31.628286 0.000000 0.000000 0.000000 -31.912137 -12.456690 8.725218 -34.215344 -12.488311 -3.215936 -3.202225 -33.218325 2.497572 0.000000 0.000000 0.000000 38.829562 1.261016 -4.750510 38.378273 6.727886 -2.890917 7.167459 33.486534 3.200675 0.000000 0.000000 0.000000 
-0.118821 0.945147 0.114225 -2.616837 -13.300396 3.425344 14.641825 0.681622 -6.826666 -3.750873 0.896088 13.496582 14.977501 24.051018 31.373535 0.000000 0.000000 0.000000 -6.672016 0.952935 -11.116782 4.883142 -0.209386 9.803163 -6.926175 -19.787976 18.339260 0.000000 0.000000 0.000000 9.826710 -2.064959 18.604074 -7.796844 2.032903 -30.510343 -3.104296 3.356806 26.274577 14.913356 -6.918451 -31.051783 0.000000 0.000000 0.000000 -32.031991 -12.209299 8.685669 -34.468844 -11.461570 -3.509184 -4.088198 -32.859785 2.724827 0.000000 0.000000 0.000000 38.506040 1.066836 -5.014157 38.965823 5.752734 -3.167307 8.195649 34.196530 3.557172 0.000000 0.000000 0.000000 
-0.126540 0.946129 0.114893 -2.352660 -13.823631 3.458619 14.653835 0.675398 -6.160275 -3.596207 0.829060 12.493854 15.177956 24.045992 32.799690 0.000000 0.000000 0.000000 -6.379140 0.954990 -10.893563 4.641675 -0.170187 9.457326 -6.585876 -19.267006 17.646522 0.000000 0.000000 0.000000 9.964917 -2.021692 18.075267 -7.853124 2.047083 -29.770832 -3.269152 3.244253 25.678380 14.235655 -6.748952 -30.232562 0.000000 0.000000 0.000000 -31.907143 -12.218696 8.829183 -34.913139 -10.517586 -3.761947 -4.351223 -32.882717 2.812787 0.000000 0.000000 0.000000 38.670319 1.003447 -5.372487 39.041145 4.784719 -3.320179 8.709245 34.493905 3.702792 0.000000 0.000000 0.000000 
-0.131963 0.946712 0.115198 -2.025452 -13.612583 3.328630 14.460609 0.630201 -5.836988 -3.555937 0.790864 12.020477 15.462406 24.349340 33.104472 0.000000 0.000000 0.000000 -6.213218 0.936988 -10.653929 4.561407 -0.164580 9.399540 -7.045459 -19.880721 17.359304 0.000000 0.000000 0.000000 10.267669 -2.072388 18.118817 -7.809037 2.045102 -29.968955 -3.707907 3.090928 26.037441 14.263640 -6.794129 -30.295356 0.000000 0.000000 0.000000 -32.121862 -12.314257 8.966063 -34.936372 -10.293433 -3.862221 -4.651567 -33.692633 2.990651 0.000000 0.000000 0.000000 38.809036 0.930102 -5.463288 39.087818 4.197471 -3.515853 9.348561 34.928301 3.951533 0.000000 0.000000 0.000000 
